HIERARCHY
ROOT root
{
	OFFSET	0	13.1	24.9
	CHANNELS 6  Xposition Yposition Zposition Xrotation Yrotation Zrotation
	JOINT spine_1
	{
		OFFSET	0	9.99999	0
		CHANNELS 3  Xrotation Yrotation Zrotation
		JOINT spine_2
		{
			OFFSET	0	112	-10
			CHANNELS 3  Xrotation Yrotation Zrotation
			JOINT spine_3
			{
				OFFSET	0	206.5	19.3
				CHANNELS 3  Xrotation Yrotation Zrotation
				JOINT spine_4
				{
					OFFSET	0	110.4	14.6
					CHANNELS 3  Xrotation Yrotation Zrotation
					JOINT neck_1
					{
						OFFSET	0	71.8	-50.3
						CHANNELS 3  Xrotation Yrotation Zrotation
						JOINT neck_2
						{
							OFFSET	0	86.2	-25.8
							CHANNELS 3  Xrotation Yrotation Zrotation
							JOINT head_ee
							{
								OFFSET	0	179.8	-8.7
								CHANNELS 3  Xrotation Yrotation Zrotation
								End Site
								{
									OFFSET	1	0	0
								}
							}
						}
					}
					JOINT left_clavicle
					{
						OFFSET	-43.2	22.4	-70.8
						CHANNELS 3  Xrotation Yrotation Zrotation
						JOINT left_shoulder
						{
							OFFSET	-93.9	-5.79999	48.7
							CHANNELS 3  Xrotation Yrotation Zrotation
							JOINT left_elbow
							{
								OFFSET	-291.4	-30.8	15.2
								CHANNELS 3  Xrotation Yrotation Zrotation
								JOINT left_lowarm_twist
								{
									OFFSET	-110.7	-3.89999	13.6
									CHANNELS 3  Xrotation Yrotation Zrotation
									JOINT left_hand
									{
										OFFSET	-110.7	-3.89999	13.6
										CHANNELS 3  Xrotation Yrotation Zrotation
										JOINT left_ee
										{
											OFFSET	-80.8	-5.10001	12.1
											CHANNELS 3  Xrotation Yrotation Zrotation
											End Site
											{
												OFFSET	1	0	0
											}
										}
									}
								}
							}
						}
					}
					JOINT right_clavicle
					{
						OFFSET	43.2	22.4	-70.8
						CHANNELS 3  Xrotation Yrotation Zrotation
						JOINT right_shoulder
						{
							OFFSET	93.9	-5.79999	48.7
							CHANNELS 3  Xrotation Yrotation Zrotation
							JOINT right_elbow
							{
								OFFSET	291.4	-30.8	15.2
								CHANNELS 3  Xrotation Yrotation Zrotation
								JOINT right_lowarm_twist
								{
									OFFSET	110.7	-3.89999	13.6
									CHANNELS 3  Xrotation Yrotation Zrotation
									JOINT right_hand
									{
										OFFSET	110.7	-3.89999	13.6
										CHANNELS 3  Xrotation Yrotation Zrotation
										JOINT right_ee
										{
											OFFSET	80.8	-5.10001	12.1
											CHANNELS 3  Xrotation Yrotation Zrotation
											End Site
											{
												OFFSET	1	0	0
											}
										}
									}
								}
							}
						}
					}
				}
			}
		}
	}
	JOINT left_hip
	{
		OFFSET	-82.8	-127.5	0.300001
		CHANNELS 3  Xrotation Yrotation Zrotation
		JOINT left_knee
		{
			OFFSET	-28.2	-396.7	2.2
			CHANNELS 3  Xrotation Yrotation Zrotation
			JOINT left_ankle
			{
				OFFSET	-11.7	-411.3	35.4
				CHANNELS 3  Xrotation Yrotation Zrotation
				JOINT left_toes
				{
					OFFSET	0	-60	-88.6
					CHANNELS 3  Xrotation Yrotation Zrotation
					JOINT left_foot_ee
					{
						OFFSET	-22.5	-16.5	-42.2
						CHANNELS 3  Xrotation Yrotation Zrotation
						End Site
						{
							OFFSET	1	0	0
						}
					}
				}
			}
		}
	}
	JOINT right_hip
	{
		OFFSET	82.8	-127.5	0.300001
		CHANNELS 3  Xrotation Yrotation Zrotation
		JOINT right_knee
		{
			OFFSET	28.2	-396.7	2.2
			CHANNELS 3  Xrotation Yrotation Zrotation
			JOINT right_ankle
			{
				OFFSET	11.7	-411.3	35.4
				CHANNELS 3  Xrotation Yrotation Zrotation
				JOINT right_toes
				{
					OFFSET	0	-60	-88.6
					CHANNELS 3  Xrotation Yrotation Zrotation
					JOINT right_foot_ee
					{
						OFFSET	22.5	-16.5	-42.2
						CHANNELS 3  Xrotation Yrotation Zrotation
						End Site
						{
							OFFSET	1	0	0
						}
					}
				}
			}
		}
	}
}
MOTION
Frames: 14
Frame Time: 0.02
520.34679457 707.715 -1198.68239152 -177.261840747 -21.7643626053 178.989914201 -0.672554 0.25678 1.82216 -0.670717 0.140331 1.8348 -0.664937 -0.269644 1.8203 -0.669561 0.021172 1.84003 1.37346 12.116 3.02758 1.66564 18.893 4.34352 -0.0 0.0 -0.0 -2.89063 16.3531 -2.61973 7.3941 -21.8958 76.0616 2.06554 -45.6517 0.869447 -7.7437 -0.336321 0.930328 2.76834 -5.7274 16.4673 -0.0 0.0 -0.0 10.128 15.2308 -19.9677 -9.76914 24.4739 -59.2253 0.858778 23.0453 -0.175077 1.82356 -0.0606723 0.224996 -0.127306 -10.9675 -3.72089 0.0 0.0 0.0 1.57659 11.5224 8.77087 -10.0618 0.281724 1.51648 42.6849 24.6537 -5.40628 -23.0358 0.0 0.0 -0.0 0.0 -0.0 12.7901 13.4133 6.43663 -11.2112 -0.296843 -1.6922 27.3847 -28.519 3.88624 -16.2416 0.0 0.0 0.0 0.0 0.0 
530.320217616 709.896 -1196.22038907 -177.326396403 -19.3941040943 179.13185874 -0.618878 0.231835 1.91229 -0.616851 0.109704 1.92316 -0.611823 -0.317351 1.89997 -0.61686 -0.0133611 1.92624 1.01293 11.9256 -0.954166 1.44105 21.9156 0.00520802 -0.0 0.0 -0.0 -2.94368 14.7047 -3.02 7.06235 -25.532 74.5097 2.17003 -47.0632 0.94507 -7.72677 -0.335449 0.928347 3.01973 -6.08272 18.0891 -0.0 0.0 -0.0 9.57534 14.5808 -18.7704 -12.2951 29.9893 -58.278 0.917201 24.4345 -0.198599 2.12012 -0.0698606 0.261762 0.741163 -8.94453 -8.52043 0.0 0.0 0.0 1.59322 8.5609 9.15485 -10.9065 0.293178 1.64559 42.9171 24.014 -5.40564 -25.8619 0.0 0.0 -0.0 0.0 -0.0 11.7915 19.1798 7.64748 -11.2344 -0.297112 -1.69575 27.0741 -26.8591 3.80503 -16.1665 0.0 0.0 0.0 0.0 0.0 
539.427913669 709.307 -1187.5630159 -179.580470543 -22.0716169419 178.179830127 -1.08674 0.150442 1.88192 -1.08477 0.0304076 1.88768 -1.08231 -0.402065 1.84463 -1.08705 -0.105749 1.88496 0.744792 10.2129 0.420229 0.995338 17.7757 1.41171 -0.0 0.0 -0.0 -2.95777 16.3494 -2.72646 10.1946 -23.3423 75.3562 2.5959 -52.121 1.26967 -7.70945 -0.334558 0.926318 2.65401 -4.82607 16.0492 -0.0 0.0 -0.0 9.82512 15.9241 -19.2616 -13.9518 27.9566 -58.0284 0.737437 20.0675 -0.130479 4.69651 -0.141638 0.58301 0.0818978 -11.0999 -5.11015 0.0 0.0 0.0 -4.91067 8.71813 11.0159 -4.93312 0.171446 0.737442 43.4383 25.296 -5.49619 -23.6827 0.0 0.0 -0.0 0.0 -0.0 17.5411 15.2671 3.2269 -11.5453 -0.300576 -1.74332 25.8524 -27.169 3.66181 -15.6829 0.0 0.0 0.0 0.0 0.0 
545.702478376 709.84 -1178.43717548 178.703639806 -22.8127150122 178.074329992 -1.73132 0.0394544 1.86475 -1.72939 -0.0792636 1.86348 -1.73039 -0.523634 1.79018 -1.73479 -0.234388 1.85039 0.994775 12.0295 -0.546681 1.40733 21.7673 0.464419 -0.0 0.0 -0.0 -2.67205 14.6246 -2.59408 10.9766 -24.8451 73.0923 2.81714 -54.3654 1.44695 -7.23123 -0.310197 0.870219 2.8295 -8.9808 15.4703 -0.0 0.0 -0.0 9.99094 19.523 -19.4168 -15.4172 25.0628 -58.5989 0.794539 21.4841 -0.150736 8.25105 -0.216804 1.03078 0.462215 -13.4318 -8.44092 0.0 0.0 0.0 -6.40635 8.91 9.76464 -6.325 0.208267 0.947869 42.0415 22.9832 -5.29465 -25.3604 0.0 0.0 -0.0 0.0 -0.0 23.9418 16.426 -0.22513 -19.1584 -0.304703 -2.91055 20.8718 -26.3218 3.00611 -16.8142 0.0 0.0 0.0 0.0 0.0 
545.446362406 709.84 -1176.96253548 178.708780084 -22.2642876543 178.08774028 -1.73132 0.0394544 1.86475 -1.72939 -0.0792636 1.86348 -1.73039 -0.523634 1.79018 -1.73479 -0.234388 1.85039 0.994775 12.0295 -0.546681 1.40733 21.7673 0.464419 -0.0 0.0 -0.0 -2.67205 14.6246 -2.59408 10.9766 -24.8451 73.0923 2.81714 -54.3654 1.44695 -7.23123 -0.310197 0.870219 2.8295 -8.9808 15.4703 -0.0 0.0 -0.0 9.99094 19.523 -19.4168 -15.4172 25.0628 -58.5989 0.794539 21.4841 -0.150736 8.25105 -0.216804 1.03078 0.462215 -13.4318 -8.44092 0.0 0.0 0.0 -6.40635 8.91 9.76464 -6.325 0.208267 0.947869 42.0415 22.9832 -5.29465 -25.3604 0.0 0.0 -0.0 0.0 -0.0 23.9418 16.426 -0.22513 -19.1584 -0.304703 -2.91055 20.8718 -26.3218 3.00611 -16.8142 0.0 0.0 0.0 0.0 0.0 
570.261931628 711.365 -1169.82994824 178.104585153 -25.2734271333 178.581363261 -2.38476 -0.0375153 1.54085 -2.38345 -0.135476 1.53534 -2.38591 -0.516176 1.45232 -2.38874 -0.280359 1.5156 0.477661 11.4858 -0.290903 0.820834 20.6637 0.781706 -0.0 0.0 -0.0 -1.80604 18.2499 -0.604043 13.0624 -25.8761 72.065 3.93706 -62.8363 2.40549 -5.4511 -0.223661 0.659684 2.92486 -17.2539 12.2718 -0.0 0.0 -0.0 9.5842 22.0852 -18.3091 -17.0289 20.0683 -59.6238 0.735841 20.0275 -0.129933 13.2549 -0.275272 1.66706 0.101804 -16.1216 -7.21035 0.0 0.0 0.0 -10.4146 10.2414 10.6982 -3.59077 0.131099 0.535387 42.5318 22.7647 -5.33195 -26.7575 0.0 0.0 -0.0 0.0 -0.0 27.2162 16.0305 -1.27312 -27.0002 -0.147227 -4.10267 18.8247 -21.8016 2.66963 -15.2934 0.0 0.0 0.0 0.0 0.0 
574.587182207 709.509 -1165.85073217 177.564414535 -26.8082439432 178.467952608 -2.50483 -0.0976896 1.62481 -2.50339 -0.200869 1.61531 -2.50781 -0.602786 1.51205 -2.51083 -0.356453 1.58825 1.95416 12.0458 -0.690396 2.4165 21.7722 0.153892 -0.0 0.0 -0.0 -1.70166 16.6286 -0.703848 13.6179 -25.0251 69.7488 4.24365 -64.54 2.68035 -4.79011 -0.193204 0.580849 2.85964 -19.4102 10.7785 -0.0 0.0 -0.0 9.55017 22.9322 -18.1593 -18.0154 21.2241 -60.6411 0.72351 19.718 -0.125741 14.7504 -0.28194 1.85796 0.595483 -17.58 -10.812 0.0 0.0 0.0 -11.4171 11.6276 10.4529 -4.03311 0.144918 0.601867 42.4231 21.3572 -5.28183 -27.3626 0.0 0.0 -0.0 0.0 -0.0 30.0878 14.6272 -2.81179 -25.8327 -0.180995 -3.92668 9.31668 -17.6373 1.34663 -16.4847 0.0 0.0 0.0 0.0 0.0 
575.353575144 709.509 -1169.68267375 177.537895924 -28.0041393989 178.410343634 -2.50483 -0.0976896 1.62481 -2.50339 -0.200869 1.61531 -2.50781 -0.602786 1.51205 -2.51083 -0.356453 1.58825 1.95416 12.0458 -0.690396 2.4165 21.7722 0.153892 -0.0 0.0 -0.0 -1.70166 16.6286 -0.703848 13.6179 -25.0251 69.7488 4.24365 -64.54 2.68035 -4.79011 -0.193204 0.580849 2.85964 -19.4102 10.7785 -0.0 0.0 -0.0 9.55017 22.9322 -18.1593 -18.0154 21.2241 -60.6411 0.72351 19.718 -0.125741 14.7504 -0.28194 1.85796 0.595483 -17.58 -10.812 0.0 0.0 0.0 -11.4171 11.6276 10.4529 -4.03311 0.144918 0.601867 42.4231 21.3572 -5.28183 -27.3626 0.0 0.0 -0.0 0.0 -0.0 30.0878 14.6272 -2.81179 -25.8327 -0.180995 -3.92668 9.31668 -17.6373 1.34663 -16.4847 0.0 0.0 0.0 0.0 0.0 
584.559286881 710.374 -1167.86456445 177.927217686 -28.4236461178 178.702709114 -2.47948 -0.155916 1.55799 -2.47817 -0.254727 1.54492 -2.48401 -0.636504 1.43059 -2.48664 -0.402609 1.51314 2.55242 11.3862 0.122975 2.94144 19.8371 0.936365 -0.0 0.0 -0.0 -0.776514 17.1578 0.811811 14.2813 -24.3776 68.1543 4.42895 -65.4758 2.8483 -5.38001 -0.220342 0.651222 2.49019 -16.3652 9.74409 -0.0 0.0 -0.0 9.54332 21.3841 -18.276 -17.9971 20.808 -60.1609 0.70957 19.3666 -0.121078 17.5927 -0.280873 2.22095 0.224909 -20.2266 -9.5094 0.0 0.0 0.0 -13.2519 14.0953 11.119 -1.10547 0.0439374 0.163957 42.5464 24.3059 -5.3821 -27.8467 0.0 0.0 -0.0 0.0 -0.0 31.6788 13.2717 -3.56199 -23.7123 -0.233124 -3.60547 0.361379 -17.9022 0.0535741 -17.2754 0.0 0.0 0.0 0.0 0.0 
598.244698535 706.715 -1162.58281066 177.304812516 -29.5671731568 178.642243423 -2.71039 0.0225067 1.61754 -2.70893 -0.0804534 1.61569 -2.70971 -0.491775 1.54115 -2.71295 -0.24224 1.59946 2.721 11.9047 -0.733737 3.20572 21.4442 -0.0210011 -0.0 0.0 -0.0 -1.1365 16.9049 0.218765 14.5012 -24.9958 67.7013 5.26964 -69.0127 3.62393 -3.86807 -0.152244 0.470311 3.07344 -24.131 9.8281 -0.0 0.0 -0.0 9.89258 24.9616 -18.7314 -21.2955 20.3808 -60.5144 0.752921 20.4542 -0.135842 16.5792 -0.283319 2.09153 0.688943 -20.0412 -12.2548 0.0 0.0 0.0 -13.8091 11.8436 10.7525 -4.47852 0.158312 0.668911 42.7026 19.7784 -5.26517 -27.6139 0.0 0.0 -0.0 0.0 -0.0 32.5992 11.9939 -4.11461 -24.9085 -0.205178 -3.78691 -0.167406 -12.5726 -0.0245728 -17.6975 0.0 0.0 0.0 0.0 0.0 
608.170253217 705.346 -1163.1872607 177.955295671 -29.6249954099 178.59579022 -2.62246 0.163475 1.70022 -2.62085 0.0549703 1.70717 -2.61738 -0.381591 1.6649 -2.62123 -0.113903 1.70425 3.37859 11.9114 -0.364986 3.86485 21.0409 0.299565 -0.0 0.0 -0.0 -0.587551 18.5987 1.28984 15.227 -23.7024 67.1451 5.46058 -69.6837 3.80261 -6.18974 -0.258772 0.747364 2.78287 -19.1034 10.412 -0.0 0.0 -0.0 10.4241 25.9152 -19.8233 -21.4648 20.4529 -59.9552 0.599558 16.5417 -0.0871555 16.2936 -0.283594 2.05505 0.214591 -21.1378 -9.78082 0.0 0.0 0.0 -14.0484 13.8444 11.8674 -5.01886 0.173862 0.750379 42.5247 21.0231 -5.28171 -26.6853 0.0 0.0 -0.0 0.0 -0.0 33.2177 10.965 -4.29082 -19.5459 -0.300765 -2.96987 -1.06707 -16.2264 -0.157995 -16.8181 0.0 0.0 0.0 0.0 0.0 
621.524030588 701.733 -1160.8383203 178.114739966 -30.2670152632 179.023891237 -2.77811 0.194474 1.55076 -2.77678 0.0954139 1.55999 -2.77253 -0.309119 1.53203 -2.7758 -0.0633147 1.56162 4.79176 12.1976 -0.664042 5.37569 21.5635 -0.233888 -0.0 0.0 -0.0 -0.368624 18.2488 1.57657 17.291 -21.9257 67.6197 5.55746 -70.0086 3.89355 -5.07824 -0.206368 0.615257 3.04238 -21.9811 10.7204 -0.0 0.0 -0.0 9.61855 25.224 -18.0926 -21.0263 20.6161 -60.7511 0.573313 15.8548 -0.0798339 16.2491 -0.283621 2.04936 0.10179 -21.164 -9.11747 0.0 0.0 0.0 -14.7083 15.6972 12.0524 -5.53409 0.187971 0.82819 42.5346 20.095 -5.25846 -27.7366 0.0 0.0 -0.0 0.0 -0.0 33.8829 11.451 -3.87398 -15.6673 -0.322071 -2.37527 -5.56676 -12.487 -0.826065 -18.6959 0.0 0.0 0.0 0.0 0.0 
648.083292497 690.693 -1143.24862683 179.726994269 -35.285739908 179.726643726 -2.93264 0.0503733 1.5861 -2.93124 -0.0506433 1.58609 -2.9311 -0.461232 1.5184 -2.93425 -0.215671 1.57218 3.72082 12.1287 0.775087 4.16734 20.3886 1.5577 -0.0 0.0 -0.0 -0.931906 16.0695 0.420678 18.0212 -24.2547 64.8328 4.76764 -67.0283 3.15834 -4.50801 -0.180483 0.547099 3.20216 -24.5051 10.4805 -0.0 0.0 -0.0 10.5233 25.8101 -20.0576 -23.0852 20.1227 -60.6293 0.519647 14.4357 -0.0658118 16.3966 -0.283516 2.0682 0.45696 -22.3009 -11.6396 0.0 0.0 0.0 -14.9513 13.8299 11.4626 -5.31855 0.182154 0.795623 42.1063 18.959 -5.19386 -27.4049 0.0 0.0 -0.0 0.0 -0.0 35.9717 10.2193 -6.32526 -11.8739 -0.303957 -1.79363 -2.70174 -8.92572 -0.397783 -18.6108 0.0 0.0 0.0 0.0 0.0 
663.207532399 688.726 -1131.67997401 179.811814661 -36.498701982 179.653415291 -3.32215 0.308465 1.65542 -3.32064 0.202516 1.67169 -3.3125 -0.250037 1.66525 -3.31637 0.0160567 1.68383 4.76913 11.8915 -1.94061 5.42702 22.1416 -1.7187 -0.0 0.0 -0.0 -0.73251 15.5915 0.67083 18.1483 -25.2836 64.7294 4.58054 -66.1945 2.98662 -5.85829 -0.242877 0.708074 3.28952 -20.6134 13.0724 -0.0 0.0 -0.0 10.6734 25.4358 -20.435 -22.9265 20.4631 -61.3034 0.372168 10.446 -0.0340208 16.0062 -0.283688 2.01834 0.736179 -24.0512 -13.8831 0.0 0.0 0.0 -15.7202 16.7247 11.1578 -7.97172 0.245209 1.19786 42.8309 19.8355 -5.27767 -25.418 0.0 0.0 -0.0 0.0 -0.0 35.7708 8.95498 -6.51807 -11.4087 -0.299086 -1.72243 -2.08195 -10.8412 -0.306376 -17.7905 0.0 0.0 0.0 0.0 0.0 
